<?xml version="1.0"?>
<svg version="1.1" id="圖層_1" xmlns="http://www.w3.org/2000/svg" x="0" y="0" viewBox="0 0 100 100" xml:space="preserve"><path d="M65.569 19.949L50 35.518 34.431 19.949c-3.993-3.993-10.49-3.993-14.483 0s-3.993 10.49 0 14.483l15.569 15.569L19.948 65.57c-3.993 3.993-3.993 10.49 0 14.483 3.993 3.993 10.49 3.993 14.483 0L50 64.484l15.569 15.569c3.993 3.993 10.49 3.993 14.483 0s3.993-10.49 0-14.483L64.483 50.001l15.569-15.569c3.993-3.993 3.993-10.49 0-14.483-3.993-3.993-10.49-3.993-14.483 0z" fill="#e15b64"/><metadata xmlns:d="https://loading.io/stock/"><d:name>cross</d:name><d:tags>times,delete,remove,clear,error,forbid,deny,negative,drop,refuse,reject,cross,form</d:tags><d:license>free</d:license><d:slug>hevw6u</d:slug></metadata></svg>